<?xml version="1.0" standalone="no"?>
<!DOCTYPE svg PUBLIC "-//W3C//DTD SVG 20010904//EN"
 "http://www.w3.org/TR/2001/REC-SVG-20010904/DTD/svg10.dtd">
<svg version="1.0" xmlns="http://www.w3.org/2000/svg"
 width="799.000000pt" height="216.000000pt" viewBox="0 0 799.000000 216.000000"
 preserveAspectRatio="xMidYMid meet">

<g transform="translate(0.000000,216.000000) scale(0.100000,-0.100000)"
fill="#000000" stroke="none">
<path d="M0 1082 l0 -1078 127 18 c71 10 147 20 171 23 l42 6 0 586 c0 323 2
584 5 581 3 -2 90 -253 193 -556 104 -304 191 -555 194 -557 4 -5 181 13 316
31 l52 7 0 1008 0 1009 -170 0 -170 0 -2 -609 -3 -610 -199 557 c-110 306
-208 581 -219 610 l-20 52 -158 0 -159 0 0 -1078z"/>
<path d="M1430 1165 l0 -996 58 6 c55 5 603 49 785 62 l87 6 0 158 0 159 -77
0 c-43 0 -170 -7 -283 -15 -113 -8 -213 -15 -222 -15 -17 0 -18 18 -18 249 0
218 2 250 16 255 9 3 110 6 225 6 l209 0 0 165 0 165 -225 0 -225 0 0 225 0
225 300 0 300 0 0 170 0 170 -465 0 -465 0 0 -995z"/>
<path d="M2580 1990 l0 -170 175 0 175 0 0 -775 0 -775 165 0 165 0 0 775 0
775 175 0 175 0 0 170 0 170 -515 0 -515 0 0 -170z"/>
<path d="M3830 1225 l0 -935 165 0 165 0 0 385 0 385 230 0 230 0 0 165 0 165
-230 0 -230 0 0 215 0 215 305 0 305 0 0 170 0 170 -470 0 -470 0 0 -935z"/>
<path d="M4990 1216 l0 -944 148 -6 c81 -4 268 -13 415 -21 147 -8 283 -15
302 -15 l35 0 0 163 0 163 -227 12 c-126 7 -254 12 -285 12 l-58 0 0 790 0
790 -165 0 -165 0 0 -944z"/>
<path d="M6180 1181 l0 -978 103 -7 c56 -4 130 -9 165 -13 l62 -6 0 992 0 991
-165 0 -165 0 0 -979z"/>
<path d="M6804 2152 c11 -18 386 -994 386 -1005 0 -7 -96 -230 -214 -497 -117
-267 -212 -486 -211 -488 7 -8 349 -42 356 -35 4 4 60 131 124 280 65 150 120
271 124 269 4 -3 60 -141 125 -309 l118 -303 179 -29 c98 -16 181 -26 185 -23
3 4 -89 258 -205 564 l-211 558 169 405 c93 223 190 454 215 514 l45 107 -183
0 -183 0 -116 -277 c-64 -153 -119 -276 -124 -274 -4 2 -56 126 -114 275
l-105 271 -183 3 c-101 1 -180 -1 -177 -6z"/>
</g>
</svg>
